<?xml version="1.0" encoding="utf-8"?>
<!-- Generator: Adobe Illustrator 15.1.0, SVG Export Plug-In . SVG Version: 6.00 Build 0)  -->
<!DOCTYPE svg PUBLIC "-//W3C//DTD SVG 1.1//EN" "http://www.w3.org/Graphics/SVG/1.1/DTD/svg11.dtd">
<svg version="1.1" id="Ebene_1" xmlns="http://www.w3.org/2000/svg" xmlns:xlink="http://www.w3.org/1999/xlink" x="0px" y="0px"
	 width="100px" height="100px" viewBox="0 0 100 100" enable-background="new 0 0 100 100" xml:space="preserve">
<circle fill="#B2B2B2" cx="50" cy="50" r="50"/>
<path fill="#FFFFFF" d="M90.21,26.785l-32.085,9.142L50,3.57l-8.125,32.356L9.791,26.785L33.75,50.001L9.791,73.216l32.084-9.142
	L50,96.431l8.125-32.356l32.085,9.142L66.252,50.001L90.21,26.785z M43.37,37.531c1.884-1.002,4.006-1.57,6.137-1.646l0.054,1.548
	c-1.898,0.066-3.788,0.572-5.464,1.464c-1.248,0.663-2.334,1.511-3.252,2.487l2.883,4.994l-5.763,0.001
	c-0.922,3.065-0.686,6.48,0.932,9.523l-1.367,0.728C33.875,49.755,36.495,41.187,43.37,37.531z M49.978,64.12
	c-2.555,0-5.139-0.692-7.461-2.144c-1.809-1.13-3.362-2.683-4.493-4.492l1.313-0.82c1.006,1.61,2.39,2.994,4,4
	c1.198,0.749,2.476,1.267,3.78,1.573L50,57.243l2.883,4.99c3.116-0.734,5.955-2.646,7.781-5.569l1.312,0.82
	C59.301,61.767,54.689,64.12,49.978,64.12z M64.113,50.493c-0.074,2.132-0.643,4.254-1.644,6.138l-1.366-0.728
	c0.891-1.676,1.397-3.566,1.465-5.464c0.049-1.412-0.142-2.776-0.528-4.06l-5.768-0.001l2.881-4.991
	c-2.194-2.331-5.269-3.834-8.713-3.954l0.053-1.548C58.276,36.158,64.386,42.711,64.113,50.493z"/>
</svg>
