<?xml version="1.0" encoding="utf-8"?>
<!-- Generator: Adobe Illustrator 15.1.0, SVG Export Plug-In . SVG Version: 6.00 Build 0)  -->
<!DOCTYPE svg PUBLIC "-//W3C//DTD SVG 1.1//EN" "http://www.w3.org/Graphics/SVG/1.1/DTD/svg11.dtd">
<svg version="1.1" id="Ebene_1" xmlns="http://www.w3.org/2000/svg" xmlns:xlink="http://www.w3.org/1999/xlink" x="0px" y="0px"
	 width="100px" height="100px" viewBox="0 0 100 100" enable-background="new 0 0 100 100" xml:space="preserve">
<circle fill="#B2B2B2" cx="50" cy="50" r="50"/>
<g>
	<path d="M41.044,84.793c0.529-4.033,0.706-7.214,0.706-11.559v-3.336H28.524c-4.055,0-6.7,0.155-9.521,0.543V59.97
		c2.645,0.465,5.378,0.62,9.521,0.62H41.75v-1.552l-2.998-4.343H28.701c-4.231,0-5.995,0.077-9.521,0.543V44.766
		c2.821,0.466,5.378,0.621,9.521,0.621h3.703l-11.02-15.747c-1.852-2.715-5.291-7.292-7.054-9.386h21.777
		c0.793,2.404,1.675,4.189,4.055,8.145l10.315,17.144l10.404-17.144c2.556-4.266,3.35-5.896,4.056-8.145h21.688
		c-1.587,2.017-6.171,8.223-6.965,9.386L68.728,45.386h3.614c4.145,0,6.173-0.155,9.435-0.621v10.473
		c-2.909-0.389-5.467-0.543-9.435-0.543H62.38l-3.085,4.343v1.552h12.871c3.968,0,6.436-0.155,9.434-0.62v10.472
		c-3.351-0.388-5.555-0.543-9.434-0.543H59.295v3.336c0,5.198,0.176,7.99,0.704,11.559H41.044z"/>
</g>
</svg>
